<svg id="Layer_1" data-name="Layer 1" xmlns="http://www.w3.org/2000/svg" viewBox="0 0 665.74 640"><defs><style>.cls-1{fill:none;stroke:#000;stroke-miterlimit:10;}</style></defs><title>w outline</title><polygon class="cls-1" points="184.09 454.29 181.2 454.81 181.14 454.1 184.09 454.29"/><polygon class="cls-1" points="287.32 411.26 345.91 581.79 373.45 583.52 303.95 381.22 287.32 411.26"/><polygon class="cls-1" points="130.46 173.14 0.54 197.16 43.45 637.7 70.99 639.41 28.08 198.89 157.99 174.87 130.46 173.14"/><polygon class="cls-1" points="257.42 269.06 177.81 413.89 181.14 454.1 184.09 454.29 284.96 270.79 381.67 252.92 354.13 251.19 257.42 269.06"/><polygon class="cls-1" points="662.34 2.22 562.72 25.75 437.64 415.91 423.11 373.6 535.18 24.02 634.8 0.5 662.34 2.22"/><polygon class="cls-1" points="662.34 2.22 483.69 563.14 373.45 583.52 303.95 381.22 287.32 411.26 171.31 620.88 70.99 639.41 28.08 198.89 157.99 174.87 177.81 413.89 181.14 454.1 181.2 454.81 184.09 454.29 284.96 270.79 381.67 252.92 423.11 373.6 437.64 415.91 562.72 25.75 662.34 2.22"/></svg>